<svg xmlns="http://www.w3.org/2000/svg" width="128" height="128" viewBox="0 0 128 128">
  <defs>
    <linearGradient id="bg" x1="0%" y1="0%" x2="100%" y2="100%">
      <stop offset="0%" stop-color="#6366f1"/>
      <stop offset="100%" stop-color="#8b5cf6"/>
    </linearGradient>
    <linearGradient id="bg-hover" x1="0%" y1="0%" x2="100%" y2="100%">
      <stop offset="0%" stop-color="#4f46e5"/>
      <stop offset="100%" stop-color="#7c3aed"/>
    </linearGradient>
  </defs>
  <rect x="24" y="52" width="80" height="60" rx="12" fill="url(#bg)"/>
  <rect x="24" y="52" width="80" height="60" rx="12" fill="none" stroke="#c7d2fe" stroke-width="2" opacity="0.3"/>
  <path d="M38 52V30a26 26 0 0 1 52 0v22" fill="none" stroke="url(#bg)" stroke-width="9" stroke-linecap="round"/>
  <path d="M38 52V30a26 26 0 0 1 52 0v22" fill="none" stroke="#e0e7ff" stroke-width="4" stroke-linecap="round" opacity="0.3"/>
  <circle cx="64" cy="78" r="9" fill="#fff" opacity="0.95"/>
  <rect x="60" y="78" width="8" height="18" rx="4" fill="#fff" opacity="0.95"/>
  <circle cx="64" cy="78" r="5" fill="#c7d2fe"/>
  <rect x="61.5" y="78" width="5" height="12" rx="2.5" fill="#c7d2fe"/>
  <circle cx="64" cy="78" r="3" fill="url(#bg)"/>
</svg>